<?xml version="1.0" encoding="UTF-8" standalone="no"?>
<svg
   viewBox="4.8 3.55 268.9 54.95"
   version="1.1"
   id="svg3"
   sodipodi:docname="h-build.svg"
   xmlns:inkscape="http://www.inkscape.org/namespaces/inkscape"
   xmlns:sodipodi="http://sodipodi.sourceforge.net/DTD/sodipodi-0.dtd"
   xmlns="http://www.w3.org/2000/svg"
   xmlns:svg="http://www.w3.org/2000/svg">
  <defs
     id="defs3" />
  <sodipodi:namedview
     id="namedview3"
     pagecolor="#ffffff"
     bordercolor="#000000"
     borderopacity="0.25"
     inkscape:showpageshadow="2"
     inkscape:pageopacity="0.0"
     inkscape:pagecheckerboard="0"
     inkscape:deskcolor="#d1d1d1" />
  <g
     transform="translate(0 -5.5)"
     id="g3">
    <path
       d="M10.8,26.75 A25,25 0 0 1 53.2,26.75"
       fill="none"
       stroke="#ffffff"
       stroke-width="4"
       stroke-linecap="round"
       id="path1" />
    <path
       d="M17.6,31 A17,17 0 0 1 46.4,31"
       fill="none"
       stroke="#ffffff"
       stroke-width="4"
       stroke-linecap="round"
       id="path2" />
    <path
       fill="#ffffff"
       fill-rule="evenodd"
       d="M32,27.5 C25.1,27.5 19.5,33.1 19.5,40 C19.5,48 32,60 32,60 C32,60 44.5,48 44.5,40 C44.5,33.1 38.9,27.5 32,27.5 Z M27.2,39 a4.8,4.8 0 1 0 9.6,0 a4.8,4.8 0 1 0 -9.6,0 Z"
       id="path3" />
  </g>
  <path
     d="m 81.27,42.92 q -2.43,0 -4.29,-0.87 -1.86,-0.87 -2.91,-2.49 -1.05,-1.62 -1.05,-3.9 v -0.84 h 3.9 v 0.84 q 0,1.89 1.17,2.85 1.17,0.93 3.18,0.93 2.04,0 3.03,-0.81 1.02,-0.81 1.02,-2.07 0,-0.87 -0.51,-1.41 -0.48,-0.54 -1.44,-0.87 -0.93,-0.36 -2.28,-0.66 L 80.4,33.47 q -2.16,-0.48 -3.72,-1.2 -1.53,-0.75 -2.37,-1.95 -0.81,-1.2 -0.81,-3.12 0,-1.92 0.9,-3.27 0.93,-1.38 2.58,-2.1 1.68,-0.75 3.93,-0.75 2.25,0 3.99,0.78 1.77,0.75 2.76,2.28 1.02,1.5 1.02,3.78 v 0.9 h -3.9 v -0.9 q 0,-1.2 -0.48,-1.92 -0.45,-0.75 -1.32,-1.08 -0.87,-0.36 -2.07,-0.36 -1.8,0 -2.67,0.69 -0.84,0.66 -0.84,1.83 0,0.78 0.39,1.32 0.42,0.54 1.23,0.9 0.81,0.36 2.07,0.63 l 0.69,0.15 q 2.25,0.48 3.9,1.23 1.68,0.75 2.61,1.98 0.93,1.23 0.93,3.15 0,1.92 -0.99,3.39 -0.96,1.44 -2.76,2.28 -1.77,0.81 -4.2,0.81 z M 91.780027,42.5 V 27.62 h 3.78 V 42.5 Z m 1.89,-16.62 q -1.02,0 -1.74,-0.66 -0.69,-0.66 -0.69,-1.74 0,-1.08 0.69,-1.74 0.72,-0.66 1.74,-0.66 1.05,0 1.74,0.66 0.69,0.66 0.69,1.74 0,1.08 -0.69,1.74 -0.69,0.66 -1.74,0.66 z m 4.870022,9.24 v -0.48 q 0,-2.34 0.93,-3.99 0.930001,-1.68 2.460001,-2.55 1.56,-0.9 3.39,-0.9 2.04,0 3.09,0.72 1.05,0.72 1.53,1.5 h 0.54 v -1.8 h 3.72 v 17.52 q 0,1.53 -0.9,2.43 -0.9,0.93 -2.4,0.93 h -9.96 v -3.3 h 8.64 q 0.84,0 0.84,-0.9 v -3.87 h -0.54 q -0.3,0.48 -0.84,0.99 -0.54,0.48 -1.44,0.81 -0.9,0.33 -2.28,0.33 -1.83,0 -3.39,-0.87 -1.53,-0.9 -2.460001,-2.55 -0.93,-1.68 -0.93,-4.02 z m 7.860001,4.14 q 1.74,0 2.91,-1.11 1.17,-1.11 1.17,-3.12 v -0.3 q 0,-2.04 -1.17,-3.12 -1.14,-1.11 -2.91,-1.11 -1.74,0 -2.91,1.11 -1.17,1.08 -1.17,3.12 v 0.3 q 0,2.01 1.17,3.12 1.17,1.11 2.91,1.11 z m 11.50001,3.24 V 27.62 h 3.72 v 1.95 h 0.54 q 0.36,-0.78 1.35,-1.47 0.99,-0.72 3,-0.72 1.74,0 3.03,0.81 1.32,0.78 2.04,2.19 0.72,1.38 0.72,3.24 v 8.88 h -3.78 v -8.58 q 0,-1.68 -0.84,-2.52 -0.81,-0.84 -2.34,-0.84 -1.74,0 -2.7,1.17 -0.96,1.14 -0.96,3.21 v 7.56 z m 22.59998,0.42 q -1.59,0 -2.85,-0.54 -1.26,-0.57 -2.01,-1.62 -0.72,-1.08 -0.72,-2.61 0,-1.53 0.72,-2.55 0.75,-1.05 2.04,-1.56 1.32,-0.54 3,-0.54 h 4.08 v -0.84 q 0,-1.05 -0.66,-1.71 -0.66,-0.69 -2.1,-0.69 -1.41,0 -2.1,0.66 -0.69,0.63 -0.9,1.65 l -3.48,-1.17 q 0.36,-1.14 1.14,-2.07 0.81,-0.96 2.13,-1.53 1.35,-0.6 3.27,-0.6 2.94,0 4.65,1.47 1.71,1.47 1.71,4.26 v 5.55 q 0,0.9 0.84,0.9 h 1.2 v 3.12 h -2.52 q -1.11,0 -1.83,-0.54 -0.72,-0.54 -0.72,-1.44 v -0.03 h -0.57 q -0.12,0.36 -0.54,0.96 -0.42,0.57 -1.32,1.02 -0.9,0.45 -2.46,0.45 z m 0.66,-3.06 q 1.59,0 2.58,-0.87 1.02,-0.9 1.02,-2.37 v -0.3 h -3.81 q -1.05,0 -1.65,0.45 -0.6,0.45 -0.6,1.26 0,0.81 0.63,1.32 0.63,0.51 1.83,0.51 z m 11.55997,2.64 v -21 h 3.78 v 21 z m 21.77002,0.42 q -2.43,0 -4.29,-0.87 -1.86,-0.87 -2.91,-2.49 -1.05,-1.62 -1.05,-3.9 v -0.84 h 3.9 v 0.84 q 0,1.89 1.17,2.85 1.17,0.93 3.18,0.93 2.04,0 3.03,-0.81 1.02,-0.81 1.02,-2.07 0,-0.87 -0.51,-1.41 -0.48,-0.54 -1.44,-0.87 -0.93,-0.36 -2.28,-0.66 l -0.69,-0.15 q -2.16,-0.48 -3.72,-1.2 -1.53,-0.75 -2.37,-1.95 -0.81,-1.2 -0.81,-3.12 0,-1.92 0.9,-3.27 0.93,-1.38 2.58,-2.1 1.68,-0.75 3.93,-0.75 2.25,0 3.99,0.78 1.77,0.75 2.76,2.28 1.02,1.5 1.02,3.78 v 0.9 h -3.9 v -0.9 q 0,-1.2 -0.48,-1.92 -0.45,-0.75 -1.32,-1.08 -0.87,-0.36 -2.07,-0.36 -1.8,0 -2.67,0.69 -0.84,0.66 -0.84,1.83 0,0.78 0.39,1.32 0.42,0.54 1.23,0.9 0.81,0.36 2.07,0.63 l 0.69,0.15 q 2.25,0.48 3.9,1.23 1.68,0.75 2.61,1.98 0.93,1.23 0.93,3.15 0,1.92 -0.99,3.39 -0.96,1.44 -2.76,2.28 -1.77,0.81 -4.2,0.81 z m 10.51002,5.58 V 27.62 h 3.72 v 1.8 h 0.54 q 0.51,-0.87 1.59,-1.53 1.08,-0.69 3.09,-0.69 1.8,0 3.33,0.9 1.53,0.87 2.46,2.58 0.93,1.71 0.93,4.14 v 0.48 q 0,2.43 -0.93,4.14 -0.93,1.71 -2.46,2.61 -1.53,0.87 -3.33,0.87 -1.35,0 -2.28,-0.33 -0.9,-0.3 -1.47,-0.78 -0.54,-0.51 -0.87,-1.02 h -0.54 v 7.71 z m 7.8,-8.88 q 1.77,0 2.91,-1.11 1.17,-1.14 1.17,-3.3 v -0.3 q 0,-2.16 -1.17,-3.27 -1.17,-1.14 -2.91,-1.14 -1.74,0 -2.91,1.14 -1.17,1.11 -1.17,3.27 v 0.3 q 0,2.16 1.17,3.3 1.17,1.11 2.91,1.11 z m 17.92002,3.3 q -2.22,0 -3.99,-0.9 -1.77,-0.9 -2.79,-2.61 -1.02,-1.71 -1.02,-4.11 v -0.48 q 0,-2.4 1.02,-4.11 1.02,-1.71 2.79,-2.61 1.77,-0.9 3.99,-0.9 2.22,0 3.99,0.9 1.77,0.9 2.79,2.61 1.02,1.71 1.02,4.11 v 0.48 q 0,2.4 -1.02,4.11 -1.02,1.71 -2.79,2.61 -1.77,0.9 -3.99,0.9 z m 0,-3.36 q 1.74,0 2.88,-1.11 1.14,-1.14 1.14,-3.24 v -0.3 q 0,-2.1 -1.14,-3.21 -1.11,-1.14 -2.88,-1.14 -1.74,0 -2.88,1.14 -1.14,1.11 -1.14,3.21 v 0.3 q 0,2.1 1.14,3.24 1.14,1.11 2.88,1.11 z m 16.47998,2.94 q -1.47,0 -2.4,-0.9 -0.9,-0.93 -0.9,-2.46 v -8.4 h -3.72 v -3.12 h 3.72 V 23 h 3.78 v 4.62 h 3.18 v 3.12 h -3.18 v 7.74 q 0,0.9 0.84,0.9 h 2.88 v 3.12 z m 9.78,0 q -1.47,0 -2.4,-0.9 -0.9,-0.93 -0.9,-2.46 v -8.4 h -2.82 v -3.12 h 2.82 V 23 h 3.78 v 4.62 h 4.08 v 3.12 h -4.08 v 7.74 q 0,0.9 0.84,0.9 h 2.88 v 3.12 z m 13.76,0.42 q -2.22,0 -3.93,-0.93 -1.68,-0.96 -2.64,-2.67 -0.93,-1.74 -0.93,-4.08 v -0.36 q 0,-2.34 0.93,-4.05 0.93,-1.74 2.61,-2.67 1.68,-0.96 3.9,-0.96 2.19,0 3.81,0.99 1.62,0.96 2.52,2.7 0.9,1.71 0.9,3.99 v 1.29 h -10.83 q 0.06,1.53 1.14,2.49 1.08,0.96 2.64,0.96 1.59,0 2.34,-0.69 0.75,-0.69 1.14,-1.53 l 3.09,1.62 q -0.42,0.78 -1.23,1.71 -0.78,0.9 -2.1,1.56 -1.32,0.63 -3.36,0.63 z m -3.63,-9.57 h 6.96 q -0.12,-1.29 -1.05,-2.07 -0.9,-0.78 -2.37,-0.78 -1.53,0 -2.43,0.78 -0.9,0.78 -1.11,2.07 z m 13.65998,9.15 V 27.62 h 3.72 v 1.68 h 0.54 q 0.33,-0.9 1.08,-1.32 0.78,-0.42 1.8,-0.42 h 1.8 v 3.36 h -1.86 q -1.44,0 -2.37,0.78 -0.93,0.75 -0.93,2.34 v 8.46 z"
     id="text3"
     style="font-weight:700;font-size:30px;font-family:'Space Grotesk';letter-spacing:-0.5"
     aria-label="Signal Spotter" />
</svg>
