<svg xmlns="http://www.w3.org/2000/svg" viewBox="0 0 64 64" width="64" height="64">
  <g transform="translate(0 -5.5)">
    <path d="M10.8,26.75 A25,25 0 0 1 53.2,26.75" fill="none" stroke="#22C55E" stroke-width="4" stroke-linecap="round"/>
    <path d="M17.6,31 A17,17 0 0 1 46.4,31" fill="none" stroke="#22C55E" stroke-width="4" stroke-linecap="round"/>
    <path fill="#166534" fill-rule="evenodd" d="M32,27.5 C25.1,27.5 19.5,33.1 19.5,40 C19.5,48 32,60 32,60 C32,60 44.5,48 44.5,40 C44.5,33.1 38.9,27.5 32,27.5 Z M27.2,39 a4.8,4.8 0 1 0 9.6,0 a4.8,4.8 0 1 0 -9.6,0 Z"/>
  </g>
</svg>
